<?xml version="1.0" encoding="UTF-8"?>
<svg id="Outline" xmlns="http://www.w3.org/2000/svg" version="1.1" viewBox="0 0 512 512">
  <!-- Generator: Adobe Illustrator 29.4.0, SVG Export Plug-In . SVG Version: 2.1.0 Build 152)  -->
  <defs>
    <style>
      .st0 {
        fill: #fff;
      }
    </style>
  </defs>
  <path class="st0" d="M365.1,171.7c-17.1,4.5-27.2,22.1-22.7,39.1,4.5,17.1,22.1,27.2,39.1,22.7,17.1-4.5,27.2-22.1,22.7-39.1-4.5-17.1-22.1-27.3-39.1-22.7h0Z"/>
  <path class="st0" d="M258.5,107.7c-17.1,4.5-27.2,22.1-22.7,39.1,4.5,17.1,22.1,27.2,39.1,22.7,17.1-4.5,27.2-22.1,22.7-39.1-4.5-17.1-22.1-27.3-39.1-22.7h0Z"/>
  <path class="st0" d="M151.8,171.7c-17.1,4.5-27.2,22.1-22.7,39.1,4.5,17.1,22.1,27.2,39.1,22.7,17.1-4.5,27.2-22.1,22.7-39.1-4.5-17.1-22.1-27.3-39.1-22.7h0Z"/>
  <path class="st0" d="M151.8,299.7c-17.1,4.5-27.2,22.1-22.7,39.1,4.5,17.1,22.1,27.2,39.1,22.7,17.1-4.5,27.2-22.1,22.7-39.1-4.5-17.1-22.1-27.3-39.1-22.7h0Z"/>
  <path class="st0" d="M266.7.1C125.4-4.8,6.8,105.8,1.9,247.1c-.1,3-.2,5.9-.2,8.9.2,141.3,114.7,255.8,256,256,7.2,0,14.3-.5,21.3-1.1,11.1-.9,19.6-10.2,19.5-21.3l-.7-76.5c-.5-42,33.2-76.5,75.2-77,20.5-.2,40.2,7.8,54.7,22.3l2.1,2.1c9.8,9.9,24.1,14.1,37.7,11.1,13.4-2.8,24.5-12.3,29.4-25.1,11.8-30.9,17.4-63.9,16.6-96.9C508.7,114.9,401.3,6.4,266.7.1ZM458.3,328.7l-.3-.3c-46.4-46.3-121.6-46.3-168,.1s-35,53.1-34.7,84.9l.5,55.9c-117.8-.5-212.9-96.5-212.4-214.3S139.9,42.1,257.7,42.6c2.5,0,5,0,7.5,0,112.2,5.3,201.6,95.6,205.8,207.9.7,26.5-3.6,53-12.7,77.9h0v.2Z"/>
  <metadata>
    <sfw xmlns="http://ns.adobe.com/SaveForWeb/1.0/">
      <slices/>
      <sliceSourceBounds x="1.7" y="0" width="511.88" height="512.06" bottomLeftOrigin="true"/>
    </sfw>
  </metadata>
</svg>