<?xml version="1.0" encoding="UTF-8"?>
<svg id="Layer_1" xmlns="http://www.w3.org/2000/svg" version="1.1" viewBox="0 0 512 512">
  <!-- Generator: Adobe Illustrator 29.4.0, SVG Export Plug-In . SVG Version: 2.1.0 Build 152)  -->
  <defs>
    <style>
      .st0 {
        fill: #fff;
      }
    </style>
  </defs>
  <path class="st0" d="M256,192c126.6-3.3,126.6-188.7,0-192-126.6,3.3-126.6,188.7,0,192ZM256,42.7c70.1,1.3,70.1,105.4,0,106.7-70.1-1.3-70.1-105.4,0-106.7ZM473.7,238.1c-24.4-20.3-56.3-28.7-87.4-23.1l-81.5,14.8c-19.5,3.5-36.4,13.5-48.7,27.5-12.3-14-29.2-24-48.7-27.5l-81.5-14.8c-31.2-5.6-63.1,2.7-87.4,23.1S0,288.3,0,320v59.6c0,51.6,36.8,95.7,87.6,104.9l134.1,24.4c22.8,4.1,45.9,4.1,68.7,0l134.1-24.4c50.8-9.2,87.6-53.4,87.6-104.9v-59.6c0-31.7-14-61.6-38.3-81.9h-.1ZM234.7,467.8c-1.8-.3-3.6-.6-5.4-.9l-134.1-24.4c-30.5-5.5-52.6-32-52.6-63v-59.6c0-19,8.4-36.9,23-49.1s33.9-17.2,52.5-13.8l81.5,14.8c20.3,3.7,35,21.3,35,42v154h0ZM469.3,379.6c0,31-22.1,57.4-52.5,63l-134.1,24.4c-1.8.3-3.6.6-5.4.9v-154c0-20.6,14.7-38.3,35-42l81.5-14.8c18.7-3.4,37.8,1.6,52.5,13.8,14.6,12.2,23,30.1,23,49.1v59.6h0Z"/>
  <metadata>
    <sfw xmlns="http://ns.adobe.com/SaveForWeb/1.0/">
      <slices/>
      <sliceSourceBounds x="0" y="0.03" width="512.1" height="511.97" bottomLeftOrigin="true"/>
    </sfw>
  </metadata>
</svg>