<?xml version="1.0" encoding="UTF-8"?>
<svg id="Layer_1" xmlns="http://www.w3.org/2000/svg" version="1.1" viewBox="0 0 512 512">
  <!-- Generator: Adobe Illustrator 29.4.0, SVG Export Plug-In . SVG Version: 2.1.0 Build 152)  -->
  <defs>
    <style>
      .st0 {
        fill: #fff;
      }
    </style>
  </defs>
  <path class="st0" d="M362.3,321.3c34-44,64.3-98.8,64.3-153.6C426.7,75.2,350.1,0,256,0S85.3,75.2,85.3,167.7s30.4,109.6,64.3,153.6c-52.1,30.1-85.7,86.7-85.7,148v21.3c0,11.8,9.5,21.3,21.3,21.3s21.3-9.5,21.3-21.3v-21.3c0-48.6,28.1-93.2,71-114.6,10.8,11.9,21.3,22.5,30.5,31.4,13.4,12.9,30.7,19.3,47.9,19.3s34.5-6.4,47.9-19.3c9.2-8.8,19.6-19.4,30.5-31.4,42.9,21.4,71,66,71,114.6v21.3c0,11.8,9.5,21.3,21.3,21.3s21.3-9.5,21.3-21.3v-21.3c0-61.3-33.5-117.9-85.7-148h0ZM274.3,355.3c-10.2,9.9-26.3,9.9-36.6,0-41-39.4-109.7-116.1-109.7-187.6s57.4-125,128-125,128,56.1,128,125-68.7,148.2-109.7,187.6h0ZM352,154c-.7,13.6-3.8,33-15,44.3s-30.7,14.3-44.3,15c-8.7.4-15.8-6.7-15.3-15.3.7-13.6,3.8-33,15-44.3,11.3-11.3,30.7-14.3,44.3-15,8.7-.4,15.8,6.7,15.3,15.3ZM219.6,153.7c11.3,11.3,14.3,30.7,15,44.3.4,8.7-6.7,15.8-15.3,15.3-13.6-.7-33-3.8-44.3-15s-14.3-30.7-15-44.3c-.4-8.7,6.7-15.8,15.3-15.3,13.6.7,33,3.8,44.3,15h0Z"/>
  <metadata>
    <sfw xmlns="http://ns.adobe.com/SaveForWeb/1.0/">
      <slices/>
      <sliceSourceBounds x="63.9" y="0.1" width="384" height="511.9" bottomLeftOrigin="true"/>
    </sfw>
  </metadata>
</svg>