<?xml version="1.0" encoding="UTF-8"?>
<svg id="Layer_1" xmlns="http://www.w3.org/2000/svg" version="1.1" viewBox="0 0 890.5 244.1">
  <!-- Generator: Adobe Illustrator 29.4.0, SVG Export Plug-In . SVG Version: 2.1.0 Build 152)  -->
  <defs>
    <style>
      .st0 {
        fill: #fff;
      }
    </style>
  </defs>
  <path class="st0" d="M201.5,179.5V31.7c0-9.5-4.4-18.3-12-24-7.6-5.7-17.2-7.5-26.3-4.9l-30.1,8.6c-4.5,1.3-8.5,3.5-11.8,6.5-3.3-3-7.3-5.2-11.8-6.5l-30.1-8.6c-9.2-2.6-18.8-.8-26.3,4.9-7.6,5.7-12,14.5-12,24v147.8l80.1,22.9,80.1-22.9ZM131.3,40.3c0-4.4,3-8.4,7.3-9.6l30.1-8.6c.9-.3,1.9-.4,2.8-.4,2.1,0,4.2.7,6,2,2.5,1.9,4,4.8,4,8v132.7l-50.1,14.3V40.3h0ZM111.3,178.7l-50.1-14.3V31.7c0-3.2,1.5-6.1,4-8,2.5-1.9,5.7-2.5,8.8-1.6l30.1,8.6c4.3,1.2,7.3,5.2,7.3,9.6v138.4h0ZM241.5,31.7v176.4l-120.2,34.3L1.1,208.1V41.7c0-9.5,4.4-18.3,12-24,2.5-1.9,5.2-3.2,8.1-4.2v179.5l100.2,28.6,100.2-28.6V3.5c2.8,1,5.6,2.3,8.1,4.2,7.6,5.7,12,14.5,12,24Z"/>
  <path class="st0" d="M326.2,184c-4.8,0-8.5-1.3-11-3.8-2.5-2.5-3.8-6.2-3.8-11.1v-93.4c0-5,1.3-8.9,3.8-11.6,2.5-2.7,5.8-4,9.9-4s6.5.7,8.6,2.1c2.1,1.4,4.3,3.7,6.9,6.9l54.4,67.9h-4.8v-62.1c0-4.8,1.2-8.5,3.7-11,2.5-2.5,6.1-3.8,10.9-3.8s8.4,1.3,10.9,3.8c2.5,2.5,3.7,6.2,3.7,11v95c0,4.3-1.1,7.8-3.4,10.4-2.3,2.6-5.4,3.9-9.3,3.9s-6.9-.7-9.2-2.1c-2.2-1.4-4.6-3.7-7.1-6.8l-54.4-68.1h4.8v62.1c0,4.9-1.2,8.6-3.7,11.1-2.5,2.5-6.1,3.8-10.9,3.8Z"/>
  <path class="st0" d="M457.9,182.5c-5.4,0-9.5-1.4-12.3-4.2-2.8-2.8-4.2-6.8-4.2-12.1v-88.3c0-5.3,1.4-9.3,4.2-12.1,2.8-2.8,6.9-4.2,12.3-4.2h58.1c4.1,0,7.2,1,9.3,3.1s3.1,5,3.1,8.9-1,7.1-3.1,9.2c-2.1,2.1-5.1,3.2-9.3,3.2h-44.4v23h40.6c4,0,7.1,1,9.2,3.1,2.1,2.1,3.2,5.1,3.2,9.1s-1.1,7-3.2,9.1c-2.1,2.1-5.2,3.1-9.2,3.1h-40.6v24.9h44.4c4.1,0,7.2,1.1,9.3,3.2,2.1,2.1,3.1,5.1,3.1,9s-1,7-3.1,9.1c-2.1,2.1-5.1,3.1-9.3,3.1h-58.1Z"/>
  <path class="st0" d="M557.5,184c-4,0-7.3-1.1-9.9-3.3-2.6-2.2-4.1-4.9-4.5-8.2-.4-3.3.7-6.7,3.3-10.1l36.3-48v14.2l-35.3-46.8c-2.6-3.5-3.7-7-3.3-10.3.4-3.3,1.9-6.1,4.5-8.2,2.6-2.2,5.9-3.3,9.9-3.3s6.2.8,8.7,2.4c2.5,1.6,5,4.2,7.5,7.7l25.5,35.5h-10.3l25.7-35.5c2.5-3.7,5-6.3,7.5-7.8,2.5-1.5,5.4-2.3,8.7-2.3s7.5,1.1,10.1,3.2c2.6,2.1,4.1,4.8,4.5,8.1.4,3.3-.8,6.8-3.5,10.5l-35.5,46.8v-14.2l36.3,48c2.7,3.4,3.9,6.8,3.5,10.1-.4,3.3-1.9,6.1-4.5,8.2-2.6,2.2-6,3.3-10.1,3.3s-6.1-.8-8.6-2.3c-2.5-1.5-5.1-4.1-7.7-7.8l-26.4-36.5h9.9l-26.2,36.5c-2.6,3.7-5.2,6.3-7.7,7.8-2.5,1.5-5.4,2.3-8.7,2.3Z"/>
  <path class="st0" d="M718.5,184.4c-8.8,0-16.6-1.1-23.3-3.3-6.7-2.2-12.4-5.6-17.1-10-4.6-4.5-8.1-10-10.5-16.7-2.3-6.7-3.5-14.4-3.5-23.2v-55c0-5.3,1.4-9.2,4.1-11.9,2.7-2.7,6.6-4,11.7-4s9.1,1.3,11.7,4c2.7,2.7,4,6.7,4,11.9v55.4c0,8.8,1.9,15.4,5.8,19.9,3.9,4.5,9.5,6.7,17,6.7s12.9-2.2,16.8-6.7c3.9-4.5,5.8-11.1,5.8-19.9v-55.4c0-5.3,1.3-9.2,4-11.9,2.7-2.7,6.5-4,11.6-4s8.9,1.3,11.5,4c2.6,2.7,3.9,6.7,3.9,11.9v55c0,11.8-2,21.6-6.1,29.6-4.1,7.9-10.1,13.9-18.1,17.8-8,3.9-17.8,5.9-29.5,5.9Z"/>
  <path class="st0" d="M838.2,184.4c-4.6,0-9.3-.3-14.3-.9-5-.6-9.7-1.6-14.1-2.8-4.5-1.3-8.5-2.7-12-4.5-3.1-1.5-5.3-3.5-6.5-5.9-1.3-2.5-1.7-5.1-1.4-7.8s1.3-5.2,2.9-7.3c1.6-2.1,3.7-3.5,6.3-4.3,2.6-.7,5.6-.4,8.9,1.1,4.3,2.1,9.3,3.7,14.7,4.8,5.5,1.1,10.6,1.7,15.4,1.7,7.5,0,12.8-1,15.9-3,3-2,4.5-4.5,4.5-7.5s-1.1-4.7-3.2-6.3c-2.1-1.6-5.9-3-11.2-4.1l-20.1-4.3c-11-2.3-19.1-6.3-24.5-12-5.4-5.7-8.1-13.1-8.1-22.1s1.2-11.3,3.7-16.2c2.5-4.9,5.9-9,10.5-12.4,4.5-3.4,9.9-6.1,16.1-8,6.2-1.9,13.2-2.8,20.8-2.8s12,.7,18.1,2c6.1,1.3,11.4,3.3,15.9,5.9,2.6,1.4,4.5,3.3,5.7,5.7,1.1,2.4,1.6,4.9,1.4,7.5-.2,2.6-1.1,4.8-2.7,6.8-1.5,1.9-3.6,3.2-6.2,3.9-2.6.6-5.6.2-9.2-1.3-3.3-1.5-7.1-2.6-11.2-3.3-4.2-.7-8.2-1.1-12.1-1.1s-7.8.5-10.8,1.5c-3,1-5.2,2.4-6.8,4.2-1.5,1.8-2.3,3.9-2.3,6.3s1,4.4,3,6.1c2,1.7,5.7,3.1,11.1,4.2l19.9,4.3c11.1,2.4,19.4,6.3,24.9,11.8,5.5,5.5,8.2,12.6,8.2,21.4s-1.2,11.3-3.6,16.1-5.8,8.9-10.3,12.3c-4.5,3.4-9.8,6-16.1,7.8-6.3,1.8-13.4,2.7-21.3,2.7Z"/>
  <metadata>
    <sfw xmlns="http://ns.adobe.com/SaveForWeb/1.0/">
      <slices/>
      <sliceSourceBounds x="319.23" y="129.88" width="888.3" height="240.83" bottomLeftOrigin="true"/>
    </sfw>
  </metadata>
</svg>