<?xml version="1.0" encoding="utf-8"?>
<!-- Generator: Adobe Illustrator 28.3.0, SVG Export Plug-In . SVG Version: 6.00 Build 0)  -->
<svg version="1.1" id="Capa_1" xmlns="http://www.w3.org/2000/svg" xmlns:xlink="http://www.w3.org/1999/xlink" x="0px" y="0px"
	 viewBox="0 0 34.4 48.6" style="enable-background:new 0 0 34.4 48.6;" xml:space="preserve">
<style type="text/css">
	.st0{fill:#FFFFFF;}
	.st1{fill:none;stroke:#FFFFFF;stroke-width:3;stroke-linecap:round;}
</style>
<g>
	<g>
		<g>
			<path class="st0" d="M4.4,10.8c-1.2,0-2.1-0.4-2.8-1.2s-1-2-1-3.5c0-1.6,0.3-2.7,1-3.5s1.6-1.2,2.8-1.2c1,0,1.9,0.3,2.7,1
				L6.6,3.2C6.3,2.9,6,2.7,5.6,2.6C5.3,2.5,4.9,2.4,4.5,2.4c-0.9,0-1.5,0.3-2,0.9C2.1,3.9,1.9,4.8,1.9,6.1s0.2,2.2,0.7,2.8
				c0.5,0.6,1.1,0.9,2,0.9c0.8,0,1.5-0.2,2.1-0.7l0.5,0.8c-0.4,0.3-0.8,0.6-1.3,0.7S5,10.8,4.4,10.8z"/>
		</g>
		<g>
			<path class="st0" d="M10.9,10.8c-0.9,0-1.7-0.3-2.2-0.8C8.2,9.4,7.9,8.6,7.9,7.5c0-1,0.2-1.8,0.7-2.4c0.5-0.6,1.2-0.8,2.1-0.8
				c0.8,0,1.5,0.2,1.9,0.7c0.4,0.5,0.7,1.2,0.7,2.1v0.8H9.1c0,0.6,0.2,1.1,0.5,1.4s0.8,0.6,1.5,0.6c0.3,0,0.7,0,0.9-0.1
				c0.3-0.1,0.5-0.2,0.8-0.4l0.4,0.8C12.6,10.6,11.8,10.8,10.9,10.8z M10.7,5.2c-0.6,0-1,0.2-1.2,0.5C9.2,6.1,9.1,6.5,9.1,7.1h3.1
				c0-0.4,0-0.7-0.1-1s-0.2-0.5-0.5-0.7S11.1,5.2,10.7,5.2z"/>
			<path class="st0" d="M14.7,10.7V5.8l-0.2-1.2l1-0.2l0.2,1c0.2-0.4,0.4-0.6,0.7-0.8c0.3-0.2,0.7-0.3,1.1-0.3c0.2,0,0.3,0,0.5,0.1
				s0.3,0.1,0.5,0.2l-0.3,1c-0.2-0.1-0.3-0.1-0.5-0.2c-0.2,0-0.3,0-0.4,0c-0.5,0-0.8,0.2-1.1,0.5S15.9,6.5,15.9,7v3.6H14.7z"/>
		</g>
		<g>
			<path class="st0" d="M19.6,10.7V5.8l-0.2-1.2l1-0.2l0.2,1c0.2-0.4,0.4-0.6,0.7-0.8c0.3-0.2,0.7-0.3,1.1-0.3c0.2,0,0.3,0,0.5,0.1
				s0.3,0.1,0.5,0.2l-0.3,1c-0.2-0.1-0.3-0.1-0.5-0.2c-0.2,0-0.3,0-0.4,0c-0.5,0-0.8,0.2-1.1,0.5c-0.3,0.3-0.4,0.7-0.4,1.2v3.6H19.6
				z"/>
		</g>
		<g>
			<path class="st0" d="M25.8,10.8c-0.6,0-1.1-0.2-1.4-0.5c-0.4-0.3-0.5-0.8-0.5-1.4c0-0.8,0.3-1.4,1-1.8s1.6-0.6,2.9-0.7
				c0-0.4-0.2-0.8-0.4-1c-0.2-0.2-0.6-0.3-1.1-0.3c-0.6,0-1.2,0.2-1.7,0.5l-0.4-0.7c0.6-0.4,1.4-0.7,2.2-0.7c1.6,0,2.4,0.8,2.4,2.3
				v2.6l0.2,1.3L28,10.7l-0.2-1c-0.2,0.3-0.5,0.6-0.8,0.8C26.6,10.7,26.2,10.8,25.8,10.8z M24.9,8.9c0,0.3,0.1,0.6,0.3,0.8
				c0.2,0.2,0.5,0.3,0.8,0.3c0.5,0,0.9-0.1,1.2-0.4s0.5-0.7,0.5-1.1V7.3c-0.9,0-1.6,0.2-2.1,0.4C25.1,8,24.9,8.4,24.9,8.9z"/>
		</g>
		<g>
			<path class="st0" d="M30.5,10.7V5.8l-0.2-1.2l1-0.2l0.2,1c0.2-0.4,0.4-0.6,0.7-0.8c0.3-0.2,0.7-0.3,1.1-0.3c0.2,0,0.3,0,0.5,0.1
				s0.3,0.1,0.5,0.2l-0.3,1c-0.2-0.1-0.3-0.1-0.5-0.2c-0.2,0-0.3,0-0.4,0c-0.5,0-0.8,0.2-1.1,0.5S31.6,6.5,31.6,7v3.6H30.5z"/>
		</g>
	</g>
	<line class="st1" x1="6.2" y1="22.1" x2="31.2" y2="47.1"/>
	<line class="st1" x1="31.2" y1="22.1" x2="6.2" y2="47.1"/>
</g>
<g>
</g>
<g>
</g>
<g>
</g>
<g>
</g>
<g>
</g>
<g>
</g>
<g>
</g>
<g>
</g>
<g>
</g>
<g>
</g>
<g>
</g>
<g>
</g>
<g>
</g>
<g>
</g>
<g>
</g>
</svg>
