<?xml version="1.0" encoding="UTF-8"?>
<svg id="Layer_1" xmlns="http://www.w3.org/2000/svg" version="1.1" viewBox="0 0 24 24">
  <!-- Generator: Adobe Illustrator 29.4.0, SVG Export Plug-In . SVG Version: 2.1.0 Build 152)  -->
  <defs>
    <style>
      .st0 {
        fill: #fff;
      }
    </style>
  </defs>
  <path class="st0" d="M10.5,13.5c.4.3.9.5,1.5.5s1-.2,1.5-.5c1.6-1.3,3.5-3.3,3.5-5.2s-1.3-3.2-3-3.2-1.5.3-2,.7c-.5-.5-1.2-.7-2-.7-1.7,0-3,1.4-3,3.2s1.9,3.9,3.5,5.2ZM10,7c.5,0,1,.3,1,1s.4,1,1,1,1-.4,1-1,.5-1,1-1,1,.5,1,1.2-1.1,2.3-2.8,3.7h-.4c-1.7-1.4-2.8-2.8-2.8-3.7s.4-1.2,1-1.2ZM17,0H7C4.2,0,2,2.2,2,5v15c0,2.2,1.8,4,4,4h11c2.8,0,5-2.2,5-5V5c0-2.8-2.2-5-5-5ZM7,2h10c1.7,0,3,1.3,3,3v11H6c-.7,0-1.4.2-2,.6V5c0-1.7,1.3-3,3-3ZM17,22H6c-1.1,0-2-.9-2-2s.9-2,2-2h14v1c0,1.7-1.3,3-3,3Z"/>
  <metadata>
    <sfw xmlns="http://ns.adobe.com/SaveForWeb/1.0/">
      <slices/>
      <sliceSourceBounds x="2" y="0" width="20" height="24" bottomLeftOrigin="true"/>
    </sfw>
  </metadata>
</svg>