<?xml version="1.0" encoding="UTF-8"?>
<svg id="Capa_1" xmlns="http://www.w3.org/2000/svg" version="1.1" xmlns:xlink="http://www.w3.org/1999/xlink" viewBox="0 0 267.3 24.4">
  <!-- Generator: Adobe Illustrator 29.4.0, SVG Export Plug-In . SVG Version: 2.1.0 Build 152)  -->
  <defs>
    <style>
      .st0 {
        fill: #ea4335;
      }

      .st1 {
        fill: #f79e1b;
      }

      .st1, .st2, .st3, .st4, .st5, .st6, .st7, .st8, .st9, .st10 {
        fill-rule: evenodd;
      }

      .st2 {
        fill: #eb001b;
      }

      .st3 {
        fill: #019dde;
      }

      .st4 {
        fill: #ff5f00;
      }

      .st11 {
        fill: #fbbc04;
      }

      .st12 {
        fill: #4285f4;
      }

      .st13 {
        fill: none;
      }

      .st14 {
        fill: #34a853;
      }

      .st15, .st10 {
        fill: #2a2d2e;
      }

      .st16 {
        fill: #fbfaf8;
      }

      .st5 {
        fill: #012f86;
      }

      .st6 {
        fill: #28356a;
      }

      .st7 {
        fill: #1a1f71;
      }

      .st17 {
        fill: #5f6368;
      }

      .st8 {
        fill: #00164c;
      }

      .st9 {
        fill: #f9a51a;
      }

      .st18 {
        clip-path: url(#clippath);
      }
    </style>
    <clipPath id="clippath">
      <rect class="st13" x="172.5" y="7" width="32" height="12"/>
    </clipPath>
  </defs>
  <g>
    <rect class="st16" width="48" height="24" rx="2" ry="2"/>
    <path class="st6" d="M20.5,20.4l.3-2h-.7s-3.5,0-3.5,0l2.4-14.6s0,0,0-.1c0,0,0,0,.1,0h5.9c1.9,0,3.3.4,4,1.1.3.4.5.7.6,1.1.1.4.1.9,0,1.6h0v.4l.3.2c.3.1.5.3.7.5.3.3.5.7.5,1.2,0,.5,0,1,0,1.7-.2.7-.4,1.4-.7,1.9-.3.5-.7.9-1.1,1.2-.4.3-1,.5-1.5.7-.6.1-1.2.2-1.9.2h-.5c-.3,0-.6.1-.9.3-.2.2-.4.5-.5.8v.2s-.6,3.5-.6,3.5h0c0,.2,0,.2,0,.2,0,0,0,0,0,0h-2.8Z"/>
    <path class="st3" d="M30.4,7.6c0,.1,0,.2,0,.3-.8,3.8-3.4,5.1-6.8,5.1h-1.7c-.4,0-.8.3-.8.7l-1.1,6.8c0,.3.2.5.4.5h3.1c.4,0,.7-.3.7-.6h0c0-.1.6-3.6.6-3.6v-.2c0-.3.4-.6.8-.6h.5c3,0,5.3-1.1,6-4.5.3-1.4.1-2.5-.6-3.4-.2-.2-.5-.4-.8-.6Z"/>
    <path class="st8" d="M29.6,7.3c-.1,0-.2,0-.4,0-.1,0-.3,0-.4,0-.5,0-1-.1-1.5-.1h-4.6c-.1,0-.2,0-.3,0-.2,0-.4.3-.4.5l-1,5.9v.2c0-.4.4-.7.8-.7h1.7c3.4,0,6-1.3,6.8-5.1,0-.1,0-.2,0-.3-.2,0-.4-.2-.6-.3,0,0-.1,0-.2,0Z"/>
    <path class="st5" d="M22,7.6c0-.2.2-.4.4-.5,0,0,.2,0,.3,0h4.6c.5,0,1.1,0,1.5.1.1,0,.3,0,.4,0,.1,0,.2,0,.4,0,0,0,.1,0,.2,0,.2,0,.4.2.6.3.2-1.4,0-2.4-.8-3.2-.9-1-2.5-1.4-4.5-1.4h-5.9c-.4,0-.8.3-.8.7l-2.4,14.8c0,.3.2.6.5.6h3.6l1.9-11.4Z"/>
  </g>
  <g>
    <rect class="st16" x="54.8" width="48" height="24" rx="2" ry="2"/>
    <path class="st7" d="M87,7.4c-.6-.2-1.5-.4-2.6-.4-2.9,0-4.9,1.4-4.9,3.5,0,1.5,1.4,2.4,2.6,2.9,1.1.5,1.5.9,1.5,1.3,0,.7-.9,1-1.7,1s-1.8-.2-2.7-.6l-.4-.2-.4,2.4c.7.3,1.9.6,3.2.6,3.1,0,5.1-1.4,5.1-3.6,0-1.2-.8-2.1-2.4-2.9-1-.5-1.6-.8-1.6-1.3,0-.4.5-.9,1.7-.9,1,0,1.6.2,2.2.4h.3c0,.1.4-2.2.4-2.2ZM73.5,17.8l1.8-10.7h2.9l-1.8,10.7h-2.9ZM92.2,7.2h2.3l2.4,10.6h-2.7s-.3-1.2-.4-1.6c-.2,0-1.2,0-2.1,0h0c-.8,0-1.5,0-1.7,0-.1.3-.6,1.6-.6,1.6h-3.1l4.3-9.8c.3-.7.8-.9,1.5-.9ZM90.9,14.1c.2-.6,1.2-3,1.2-3,0,0,0-.1.1-.3h0c0-.2.2-.5.3-.7l.2.9s.6,2.5.7,3.1h-2.4ZM68.2,14.5l2.9-7.3h3.1l-4.6,10.6h-3.1s-2.6-9.3-2.6-9.3c1.9.9,3.5,2.8,4,4.5l.3,1.5Z"/>
    <path class="st9" d="M65.6,7.2h-4.7v.2c3.6.9,6,3,7,5.6l-1-4.9c-.2-.7-.7-.9-1.3-.9Z"/>
  </g>
  <g>
    <rect class="st16" x="109.6" width="48" height="24" rx="2" ry="2"/>
    <path class="st1" d="M139.4,21c5.1,0,9.2-4,9.2-9s-4.1-9-9.2-9-9.2,4-9.2,9,4.1,9,9.2,9Z"/>
    <path class="st2" d="M127.8,21c5.1,0,9.2-4,9.2-9s-4.1-9-9.2-9-9.2,4-9.2,9,4.1,9,9.2,9Z"/>
    <path class="st4" d="M133.6,5c-2.1,1.7-3.4,4.2-3.4,7s1.3,5.3,3.4,7c2.1-1.7,3.4-4.2,3.4-7s-1.3-5.3-3.4-7Z"/>
  </g>
  <g>
    <rect class="st16" x="164.5" width="48" height="24" rx="2" ry="2"/>
    <g class="st18">
      <g>
        <path class="st12" d="M182.8,12.1c0-.3,0-.7,0-1h-5v1.9h2.9c0,.3-.2.6-.4.9-.2.3-.4.5-.7.7v1.3h1.7c1-.9,1.6-2.2,1.6-3.7Z"/>
        <path class="st14" d="M177.7,17c1.4,0,2.6-.4,3.5-1.2l-1.7-1.2c-.5.3-1.1.5-1.8.5-1.4,0-2.5-.9-3-2.1h-1.8v1.3c.4.8,1.1,1.5,1.9,2,.8.5,1.8.7,2.8.7Z"/>
        <path class="st11" d="M174.8,12.9c-.2-.6-.2-1.3,0-1.9v-1.3h-1.8c-.4.7-.6,1.5-.6,2.2s.2,1.5.6,2.2l1.8-1.3Z"/>
        <path class="st17" d="M187.6,12.9v3.5h-1.2V7.7h3.1c.4,0,.7,0,1.1.2.3.1.7.3.9.6.3.2.5.5.6.8.1.3.2.7.2,1s0,.7-.2,1c-.1.3-.4.6-.6.8-.5.5-1.2.7-2,.7h-2,0ZM187.6,8.8v3h2c.3,0,.6,0,.9-.2.3-.2.5-.4.6-.7.1-.3.2-.6.1-.9,0-.3-.2-.6-.4-.8,0,0,0,0,0,0-.1-.2-.3-.3-.5-.3-.2,0-.4-.1-.6-.1h-2ZM195.1,10.2c.9,0,1.6.2,2.1.7.5.4.8,1,.8,1.8v3.7h-1.1v-.8h0c-.5.7-1.1,1-2,1-.7,0-1.3-.2-1.7-.6-.2-.2-.4-.4-.5-.7-.1-.3-.2-.5-.2-.8,0-.6.2-1.1.7-1.5.5-.4,1.1-.5,2-.5.7,0,1.3.1,1.7.4v-.3c0-.2,0-.4-.1-.5,0-.2-.2-.3-.4-.4-.3-.3-.7-.4-1.1-.4-.7,0-1.2.3-1.6.8l-1-.6c.6-.8,1.4-1.2,2.5-1.2h0ZM193.6,14.6c0,.1,0,.3.1.4,0,.1.2.2.3.3.3.2.6.3.9.3.5,0,1-.2,1.3-.5.4-.3.6-.8.6-1.2-.4-.3-.9-.4-1.5-.4-.5,0-.9.1-1.2.3-.3.2-.5.5-.5.8h0ZM204.5,10.4l-3.9,8.6h-1.2l1.5-3-2.6-5.6h1.3l1.9,4.3h0l1.8-4.3h1.3Z"/>
        <path class="st0" d="M177.7,9c.8,0,1.5.3,2,.7l1.5-1.4c-1-.8-2.2-1.3-3.5-1.3-1,0-1.9.3-2.8.7-.8.5-1.5,1.2-1.9,2l1.8,1.3c.4-1.2,1.6-2.1,3-2.1Z"/>
      </g>
    </g>
  </g>
  <g>
    <rect class="st16" x="219.3" width="48" height="24" rx="2" ry="2"/>
    <path class="st10" d="M234.6,6.4c0,.6-.2,1.2-.5,1.6-.4.4-1,.8-1.5.7,0-.6.2-1.2.6-1.6.4-.4,1-.8,1.5-.8ZM236.5,9.9c0,0-1.1.7-1.1,1.9,0,1.5,1.3,2,1.4,2.1,0,0,0,0,0,0,0,0,0,0,0,0,0,.1-.2.8-.7,1.4-.4.6-.9,1.2-1.6,1.3-.3,0-.6,0-.8-.2-.2-.1-.5-.2-.9-.2s-.7.1-1,.2c-.2,0-.4.2-.8.2-.7,0-1.2-.7-1.6-1.3-.9-1.3-1.6-3.6-.7-5.1.5-.8,1.3-1.3,2.2-1.3.4,0,.8.1,1.1.3.2,0,.5.2.6.2s.4,0,.6-.2c.4-.2.9-.3,1.4-.3.3,0,1.3.1,1.9,1,0,0,0,0,0,0Z"/>
    <path class="st15" d="M240.7,16h1.1v-3.1h2.2c1.6,0,2.8-1.1,2.8-2.8h0c0-1.6-1.1-2.8-2.8-2.8h-3.2v8.6ZM243.6,8.4c1.2,0,1.9.7,1.9,1.8h0c0,1.1-.7,1.8-1.9,1.8h-1.9v-3.6h1.9ZM249.2,16.1c.9,0,1.5-.4,1.9-1.1h0v.9h1v-4.4c0-1.3-.9-2.1-2.4-2.1s-2.3.7-2.5,1.7h0s1,0,1,0h0c.2-.5.7-.8,1.4-.8s1.4.4,1.4,1.2v.6h-1.8c-1.5.2-2.3.9-2.3,2h0c0,1.2.9,1.9,2.1,1.9ZM248.1,14.2h0c0-.6.4-1,1.4-1.1h1.7c0-.1,0,.5,0,.5,0,.9-.8,1.6-1.8,1.6s-1.3-.4-1.3-1ZM253.8,18.2c1.1,0,1.7-.4,2.2-1.9l2.5-6.8h-1.1l-1.8,5.3h0l-1.8-5.3h-1.1l2.4,6.4v.4c-.4.7-.7,1-1.3,1s-.3,0-.4,0v.9c.1,0,.3,0,.5,0Z"/>
  </g>
  <metadata>
    <sfw xmlns="http://ns.adobe.com/SaveForWeb/1.0/">
      <slices/>
      <sliceSourceBounds x="0" y="147.5" width="267.27" height="24" bottomLeftOrigin="true"/>
    </sfw>
  </metadata>
</svg>