<?xml version="1.0" encoding="UTF-8"?>
<svg id="Layer_1" xmlns="http://www.w3.org/2000/svg" version="1.1" viewBox="0 0 512 512">
  <!-- Generator: Adobe Illustrator 29.4.0, SVG Export Plug-In . SVG Version: 2.1.0 Build 152)  -->
  <defs>
    <style>
      .st0 {
        fill: #fff;
      }
    </style>
  </defs>
  <path class="st0" d="M512,288c0-100-81.3-181.3-181.3-181.3h-53.3c0-27.8-17.8-51.5-42.7-60.3v-25c0-11.8-9.6-21.4-21.4-21.4s-21.3,9.6-21.3,21.3v25c-24.8,8.8-42.7,32.5-42.7,60.3v170.7c0,11.8,9.5,21.3,21.3,21.3h85.3c11.8,0,21.3-9.6,21.3-21.3v-128h53.3c76.5,0,138.7,62.2,138.7,138.7s-62.2,138.7-138.7,138.7h-96v-42.7h85.3c11.8,0,21.3-9.6,21.3-21.3s-9.5-21.3-21.3-21.3H106.7c-11.8,0-21.3,9.6-21.3,21.3s9.5,21.3,21.3,21.3h85.3v42.7H42.7c-11.8,0-21.3,9.6-21.3,21.3s9.5,21.3,21.3,21.3h21.3v21.3c0,11.8,9.5,21.3,21.3,21.3s21.3-9.6,21.3-21.3v-21.3h213.3v21.3c0,11.8,9.5,21.3,21.3,21.3s21.3-9.6,21.3-21.3v-24.2c84.8-15.2,149.3-89.4,149.3-178.5h.2ZM234.7,256h-42.7V106.7c0-11.8,9.6-21.3,21.3-21.3s21.3,9.6,21.3,21.3v149.3h0Z"/>
  <metadata>
    <sfw xmlns="http://ns.adobe.com/SaveForWeb/1.0/">
      <slices/>
      <sliceSourceBounds x="21.4" y="0.1" width="490.6" height="511.9" bottomLeftOrigin="true"/>
    </sfw>
  </metadata>
</svg>