<?xml version="1.0" encoding="UTF-8"?>
<svg id="Layer_1" xmlns="http://www.w3.org/2000/svg" version="1.1" viewBox="0 0 24 24">
  <!-- Generator: Adobe Illustrator 29.4.0, SVG Export Plug-In . SVG Version: 2.1.0 Build 152)  -->
  <defs>
    <style>
      .st0 {
        fill: #fff;
      }
    </style>
  </defs>
  <path class="st0" d="M24,13c0,.6-.4,1-1,1-1.7,0-3.3-.7-4.4-1.9l-2.8-3.1c-.5-.6-.8-1.4-.8-2.2s0-.6.2-.8h-5.2c-1.7,0-3-1.3-3-3s1.3-3,3-3h9.9c1.3,0,2.7.4,3.7,1.3.4.3.5,1,.2,1.4s-1,.5-1.4.2c-.7-.6-1.6-.9-2.5-.9h-9.9c-.6,0-1,.4-1,1s.4,1,1,1h8.1c.7,0,1.3.2,1.9.7l2.8,2.7c.4.4.4,1,0,1.4s-1,.4-1.4,0l-2.7-2.6c-.9-.7-2.1.6-1.3,1.5l2.8,3c.8.8,1.8,1.3,2.9,1.3s1,.4,1,1h-.1ZM14,18h-5.2c0-.3.2-.5.2-.8,0-.8-.2-1.6-.8-2.2l-2.8-3.1c-1.1-1.2-2.7-1.9-4.4-1.9s-1,.4-1,1,.4,1,1,1c1.1,0,2.2.5,2.9,1.3l2.8,3c.8.8-.4,2.2-1.3,1.5l-2.7-2.6c-.4-.4-1-.4-1.4,0s-.4,1,0,1.4l2.8,2.7c.5.5,1.2.7,1.9.7h8c.6,0,1,.4,1,1s-.4,1-1,1H4.1c-.9,0-1.8-.3-2.5-.9-.4-.3-1.1-.3-1.4.2-.3.4-.3,1.1.2,1.4,1.1.8,2.4,1.3,3.7,1.3h9.9c1.7,0,3-1.3,3-3s-1.3-3-3-3ZM11.4,16c.4.3.9.3,1.3,0,1.1-.9,3.2-2.8,3.2-4.4s-.9-2.1-1.9-2.1-1.9.9-1.9,2.1c0-1.2-.9-2.1-1.9-2.1s-1.9.9-1.9,2.1,2.1,3.5,3.2,4.4h-.1Z"/>
  <metadata>
    <sfw xmlns="http://ns.adobe.com/SaveForWeb/1.0/">
      <slices/>
      <sliceSourceBounds x="-0.14" y="0" width="24.25" height="24" bottomLeftOrigin="true"/>
    </sfw>
  </metadata>
</svg>